<?xml version="1.0" encoding="iso-8859-1"?>
<!-- Generator: Adobe Illustrator 18.0.0, SVG Export Plug-In . SVG Version: 6.00 Build 0)  -->
<!DOCTYPE svg PUBLIC "-//W3C//DTD SVG 1.1//EN" "http://www.w3.org/Graphics/SVG/1.1/DTD/svg11.dtd">
<svg version="1.1" id="Capa_1" xmlns="http://www.w3.org/2000/svg" xmlns:xlink="http://www.w3.org/1999/xlink" x="0px" y="0px"
	 viewBox="0 0 474.844 474.844" style="enable-background:new 0 0 474.844 474.844;" xml:space="preserve">
<g>
	<path d="M237.423,167.932c22.034,0,39.96-17.927,39.96-39.962c0-22.035-17.926-39.961-39.96-39.961
		c-22.035,0-39.962,17.927-39.962,39.961C197.461,150.005,215.388,167.932,237.423,167.932z M237.423,96.509
		c17.347,0,31.46,14.114,31.46,31.461c0,17.348-14.113,31.462-31.46,31.462c-17.348,0-31.462-14.114-31.462-31.462
		C205.961,110.623,220.075,96.509,237.423,96.509z"/>
	<path d="M441.943,0h-52.007c-7.857,0-14.25,6.393-14.25,14.25v36.755H99.157V14.25C99.157,6.393,92.765,0,84.907,0H32.9
		c-7.857,0-14.25,6.393-14.25,14.25v97.012c0,7.857,6.393,14.25,14.25,14.25h52.007c7.857,0,14.25-6.393,14.25-14.25V74.507h41.128
		c-3.783,2.246-6.854,5.521-8.855,9.555c-2.739,5.52-3.164,11.776-1.197,17.615l34.647,102.847
		c2.957,8.773,10.642,14.71,19.538,15.577v229.998c0,13.645,11.102,24.746,24.747,24.746c13.646,0,24.747-11.101,24.747-24.746
		V350.096c2.403,0.194,4.615,0.194,7.017,0l0.001,100.001c0,13.645,11.102,24.746,24.748,24.746
		c13.646,0,24.747-11.101,24.747-24.746l-0.002-229.997c8.896-0.866,16.583-6.803,19.54-15.578l34.646-102.846
		c1.968-5.839,1.543-12.095-1.196-17.615c-2.001-4.034-5.072-7.31-8.854-9.555h41.128v36.755c0,7.857,6.393,14.25,14.25,14.25
		h52.007c7.857,0,14.25-6.393,14.25-14.25V14.25C456.193,6.393,449.801,0,441.943,0z M90.657,111.262c0,3.17-2.58,5.75-5.75,5.75
		h-7.584V76.618c0-2.347-1.903-4.25-4.25-4.25c-2.347,0-4.25,1.903-4.25,4.25v40.394H32.9c-3.17,0-5.75-2.58-5.75-5.75V14.25
		c0-3.17,2.58-5.75,5.75-5.75h10.424v82.385c0,2.347,1.903,4.25,4.25,4.25c2.347,0,4.25-1.903,4.25-4.25V8.5h33.083
		c3.17,0,5.75,2.58,5.75,5.75V111.262z M184.419,209.706v1.835c-5.252-0.827-9.711-4.475-11.482-9.731L138.289,98.963
		c-1.242-3.687-0.974-7.637,0.756-11.122c1.73-3.486,4.714-6.09,8.404-7.333c7.612-2.568,15.893,1.543,18.459,9.155l32.211,95.617
		C190.051,191.899,184.419,200.314,184.419,209.706z M265.678,466.344c-8.959,0-16.248-7.288-16.248-16.246l-0.001-104.837
		c0-1.257-0.557-2.45-1.52-3.257c-0.771-0.646-1.74-0.993-2.73-0.993c-0.247,0-0.496,0.022-0.743,0.065
		c-2.488,0.442-4.848,0.666-7.015,0.666c-2.165,0-4.525-0.225-7.015-0.668c-1.237-0.219-2.51,0.119-3.474,0.927
		c-0.964,0.808-1.52,2-1.52,3.258v104.838c0,8.907-7.208,16.156-16.096,16.238V350.372c0-2.347-1.903-4.25-4.25-4.25
		c-2.347,0-4.25,1.903-4.25,4.25v113.637c-4.723-2.845-7.898-8.008-7.898-13.911V209.706c0-16.739,27.335-30.864,44.503-30.864
		c17.168,0,44.502,14.125,44.502,30.864l0.002,240.392C281.925,459.056,274.637,466.344,265.678,466.344z M336.554,98.963
		l-34.646,102.846c-1.772,5.259-6.232,8.909-11.485,9.734v-1.836c0-9.392-5.632-17.806-13.698-24.424l32.21-95.618
		c2.566-7.613,10.845-11.72,18.461-9.156c3.689,1.242,6.673,3.846,8.403,7.333C337.529,91.326,337.797,95.276,336.554,98.963z
		 M300.88,86.949l-31.404,93.226c-10.216-6.172-22.356-9.833-32.054-9.833c-9.697,0-21.837,3.66-32.053,9.832l-31.405-93.225
		c-1.83-5.427-5.497-9.723-10.072-12.442h147.062C306.377,77.226,302.71,81.522,300.88,86.949z M99.157,66.007v-6.501h276.529v6.501
		H99.157z M447.693,111.262c0,3.17-2.58,5.75-5.75,5.75h-34.637V51.485c0-2.347-1.903-4.25-4.25-4.25c-2.347,0-4.25,1.903-4.25,4.25
		v65.526h-8.87c-3.17,0-5.75-2.58-5.75-5.75V14.25c0-3.17,2.58-5.75,5.75-5.75h37.369v50.319c0,2.347,1.903,4.25,4.25,4.25
		s4.25-1.903,4.25-4.25V8.5h6.138c3.17,0,5.75,2.58,5.75,5.75V111.262z"/>
	<path d="M266.564,221.995c-2.347,0-4.25,1.903-4.25,4.25v79.496c0,2.347,1.903,4.25,4.25,4.25s4.25-1.903,4.25-4.25v-79.496
		C270.814,223.898,268.911,221.995,266.564,221.995z"/>
</g>
<g>
</g>
<g>
</g>
<g>
</g>
<g>
</g>
<g>
</g>
<g>
</g>
<g>
</g>
<g>
</g>
<g>
</g>
<g>
</g>
<g>
</g>
<g>
</g>
<g>
</g>
<g>
</g>
<g>
</g>
</svg>
