<?xml version="1.0" encoding="iso-8859-1"?>
<!-- Generator: Adobe Illustrator 18.0.0, SVG Export Plug-In . SVG Version: 6.00 Build 0)  -->
<!DOCTYPE svg PUBLIC "-//W3C//DTD SVG 1.1//EN" "http://www.w3.org/Graphics/SVG/1.1/DTD/svg11.dtd">
<svg version="1.1" id="Capa_1" xmlns="http://www.w3.org/2000/svg" xmlns:xlink="http://www.w3.org/1999/xlink" x="0px" y="0px"
	 viewBox="0 0 486.829 486.829" style="enable-background:new 0 0 486.829 486.829;" xml:space="preserve">
<g>
	<path d="M224.93,106.269c29.297,0,53.132-23.836,53.132-53.135C278.061,23.836,254.227,0,224.93,0
		c-29.298,0-53.134,23.836-53.134,53.134C171.796,82.433,195.632,106.269,224.93,106.269z M224.93,8.5
		c24.61,0,44.632,20.022,44.632,44.634S249.54,97.769,224.93,97.769c-24.611,0-44.634-20.023-44.634-44.635S200.318,8.5,224.93,8.5z
		"/>
	<path d="M424.307,344.643c-5.884-11.074-17.333-17.954-29.879-17.954c-5.487,0-10.966,1.37-15.841,3.961l-74.757,39.716
		l-29.005-54.588c1.603-5.082,2.42-10.362,2.42-15.726v-15.179c2.839,1.203,5.896,1.832,8.987,1.833c0.001,0,0.001,0,0.001,0
		c8.146,0,15.774-4.356,19.924-11.397l35.274-60.897c6.371-10.939,2.672-25.074-8.264-31.521l-57.35-33.459
		c-5.557-23.4-26.647-40.187-50.888-40.187c-28.297,0-51.402,22.585-52.277,50.673l-27.125,28.921l-34.4-32.109
		c-4.481-4.237-10.337-6.497-16.51-6.303c-6.165,0.173-11.894,2.736-16.13,7.218c-4.237,4.482-6.476,10.346-6.303,16.512
		c0.173,6.165,2.736,11.895,7.242,16.153l51.51,47.954c4.429,4.144,10.088,6.196,15.742,6.196c6.146,0,12.284-2.426,16.826-7.229
		l9.105-9.72v52.449l-90.016,27.359c-0.01,0.003-0.019,0.006-0.028,0.009c-13.034,3.959-22.377,15.27-23.803,28.813
		c-0.477,4.504-0.046,9.002,1.281,13.369h0.001c0.008,0.026,0.017,0.054,0.024,0.079l34.426,113.262
		c4.428,14.572,17.866,23.98,32.364,23.98c3.246,0,6.547-0.473,9.811-1.464c8.643-2.626,15.745-8.46,19.997-16.426
		c4.253-7.966,5.148-17.112,2.521-25.753l-24.616-80.995l61.239-18.612c6.32,4.216,13.638,7.105,21.595,8.244l42.569,80.118
		c5.883,11.078,17.335,17.959,29.885,17.959c0.987,0,1.986-0.044,2.967-0.131c4.474-0.393,8.774-1.666,12.782-3.78
		c0.07-0.034,0.14-0.071,0.207-0.109l104.493-55.522C426.772,381.613,433.051,361.105,424.307,344.643z M289.998,211.197
		l-12.753,21.951v-29.397L289.998,211.197z M334.081,210.142l-35.263,60.878c-2.415,4.096-6.718,6.753-11.422,7.133l19.641-33.671
		c1.183-2.027,0.498-4.63-1.529-5.813c-2.027-1.18-4.629-0.497-5.813,1.529l-20.951,35.917c-0.996-0.598-1.895-1.308-2.705-2.1
		c-0.03-0.031-0.062-0.061-0.093-0.092c-1.831-1.823-3.16-4.098-3.823-6.664c-0.975-3.773-0.421-7.7,1.572-11.081l25.783-44.378
		c1.178-2.026,0.492-4.623-1.532-5.805l-22.531-13.155c-0.095-0.066-0.199-0.116-0.299-0.174l-42.007-24.527
		c-3.357-1.979-5.743-5.146-6.717-8.92c-0.975-3.773-0.421-7.7,1.558-11.058c2.612-4.432,7.435-7.186,12.586-7.186
		c2.589,0,5.145,0.7,7.408,2.034l80.924,47.212C335.77,194.291,338.111,203.223,334.081,210.142z M157.316,231.404
		c-5.504,5.821-14.733,6.112-20.58,0.645l-51.493-47.939c-2.832-2.677-4.452-6.297-4.562-10.192
		c-0.109-3.897,1.306-7.602,3.983-10.434c2.677-2.832,6.296-4.452,10.191-4.561c3.898-0.118,7.601,1.305,10.451,4.001l37.52,35.021
		c1.715,1.6,4.398,1.51,6-0.199l23.784-25.359v42.691L157.316,231.404z M128.036,355.295c-2.245,0.683-3.513,3.057-2.83,5.303
		l25.852,85.061c1.967,6.469,1.296,13.315-1.887,19.278c-3.184,5.963-8.5,10.33-14.97,12.296c-0.395,0.12-0.791,0.228-1.188,0.328
		l-26.547-97.339c-0.617-2.265-2.955-3.598-5.219-2.982c-2.265,0.618-3.6,2.954-2.982,5.219l26.112,95.743
		c-9.875-0.98-18.687-7.752-21.747-17.824L68.193,347.08c-0.01-0.031-0.02-0.064-0.03-0.095c-0.982-3.256-1.3-6.604-0.945-9.954
		c1.066-10.133,8.051-18.595,17.796-21.565c0.011-0.004,0.021-0.007,0.032-0.01l87.565-26.614v11.208
		c0,14.444,5.794,27.561,15.287,37.05L128.036,355.295z M199.543,335.828c-0.291-0.277-0.608-0.52-0.962-0.704
		c-10.678-8.008-17.469-20.761-17.469-35.073V161.564c0-11.642,4.573-22.23,12.005-30.086v89.862c0,2.348,1.902,4.25,4.25,4.25
		c2.348,0,4.25-1.902,4.25-4.25v-96.852c6.758-4.265,14.749-6.744,23.313-6.744c17.209,0,32.517,10.103,39.619,25.112l-12.305-7.179
		c-3.554-2.095-7.603-3.202-11.708-3.202c-8.146,0-15.775,4.356-19.908,11.369c-3.132,5.314-4.008,11.527-2.466,17.499
		c1.542,5.973,5.317,10.986,10.646,14.126l39.936,23.318v48.99l-2.386,4.106c-3.133,5.313-4.009,11.527-2.467,17.499
		c0.898,3.48,2.575,6.618,4.853,9.265v21.402c0,1.322-0.063,2.637-0.179,3.945l-4.454-8.383
		c-5.884-11.075-17.335-17.955-29.884-17.955c-5.486,0-10.963,1.368-15.838,3.958c-16.463,8.747-22.739,29.259-13.991,45.723
		l7.787,14.655C207.591,340.615,203.337,338.514,199.543,335.828z M406.323,382.853l-104.585,55.57
		c-0.003,0.001-0.006,0.003-0.01,0.005c-3.028,1.61-6.273,2.578-9.647,2.875c-0.734,0.065-1.48,0.098-2.219,0.098
		c-9.398,0-17.974-5.152-22.379-13.446l-43.617-82.091c-0.001-0.002-0.002-0.004-0.003-0.006l-11.959-22.507
		c-6.549-12.325-1.85-27.68,10.473-34.229c3.651-1.939,7.75-2.964,11.851-2.964c9.397,0,17.972,5.151,22.378,13.443l41.713,78.506
		c1.1,2.072,3.671,2.862,5.747,1.759l78.51-41.71c3.652-1.94,7.751-2.967,11.853-2.967c5.032,0,9.822,1.49,13.868,4.137
		l-73.022,41.315c-2.043,1.156-2.762,3.749-1.606,5.792c1.156,2.044,3.749,2.763,5.792,1.606l75.311-42.61
		c0.746,1.008,1.43,2.072,2.029,3.202C423.346,360.953,418.645,376.306,406.323,382.853z"/>
</g>
<g>
</g>
<g>
</g>
<g>
</g>
<g>
</g>
<g>
</g>
<g>
</g>
<g>
</g>
<g>
</g>
<g>
</g>
<g>
</g>
<g>
</g>
<g>
</g>
<g>
</g>
<g>
</g>
<g>
</g>
</svg>
